#!OML:ASF X:\für Bonn\!DataBase\2005_08_12_Daniel\c3d\Daniel.ASF
:FULLY-SPECIFIED
:DEGREES
241
root 1.34282 16.3553 0.628148 173.898 -9.97196 -178.081
lowerback 43.6467 -2.79271 9.11165
upperback 8.8598 -2.93732 1.18522
thorax -10.5503 -2.96494 -1.79536
lowerneck 2.18339 -5.40616 -2.17863
upperneck 15.6776 -9.41346 5.64012
head 4.71665 -4.8789 1.72068
rclavicle 3.02153e-014 -3.18055e-015
rhumerus -9.7449 2.11215 -79.094
rradius 29.7641
rwrist 1.84755
rhand -17.6846 13.1754
rfingers 7.12502
rthumb 8.57475 -16.6304
lclavicle 3.02153e-014 -3.18055e-015
lhumerus -11.2252 10.3275 85.1036
lradius 37.2142
lwrist -12.3844
lhand -12.7263 -8.53097
lfingers 7.12502
lthumb 13.357 21.0209
rfemur -23.9693 -7.61839 19.2634
rtibia 54.6145
rfoot -28.3596 8.34904
rtoes -9.10142
lfemur -27.1808 -3.18715 -12.3344
ltibia 60.8323
lfoot -30.5089 -5.545
ltoes -8.43983
242
root 1.36035 16.4266 0.598849 173.99 -9.69153 -178.069
lowerback 43.1822 -2.82442 9.1206
upperback 8.79902 -2.96426 1.12594
thorax -10.4963 -2.95294 -1.87445
lowerneck 1.90924 -5.25556 -2.1888
upperneck 15.9186 -9.21624 5.52044
head 4.8226 -4.78496 1.67987
rclavicle -1.98785e-014 -8.74653e-015
rhumerus -10.1476 1.73885 -79.7319
rradius 29.448
rwrist 2.08304
rhand -17.7189 13.1693
rfingers 7.12502
rthumb 8.54158 -16.6379
lclavicle -1.98785e-014 -8.74653e-015
lhumerus -11.4079 9.96502 85.1403
lradius 37.5611
lwrist -12.2228
lhand -12.9512 -8.59698
lfingers 7.12502
lthumb 13.1402 20.969
rfemur -23.1601 -6.98038 19.4918
rtibia 53.2341
rfoot -28.2205 7.87145
rtoes -9.05567
lfemur -26.4022 -3.56822 -12.2954
ltibia 59.6882
lfoot -30.3574 -4.89305
ltoes -8.66443
243
root 1.37805 16.4946 0.568653 174.077 -9.37799 -178.038
lowerback 42.7258 -2.83923 9.12068
upperback 8.72424 -2.96889 1.0743
thorax -10.4564 -2.93069 -1.94996
lowerneck 1.63551 -5.11179 -2.13049
upperneck 16.1625 -9.01991 5.33642
head 4.92433 -4.69153 1.60883
rclavicle -5.1684e-015 1.86858e-014
rhumerus -10.5729 1.34999 -80.3773
rradius 29.0934
rwrist 2.37694
rhand -17.7318 13.2124
rfingers 7.12502
rthumb 8.52913 -16.5953
lclavicle -5.1684e-015 1.86858e-014
lhumerus -11.6173 9.65835 85.1765
lradius 37.8875
lwrist -12.0385
lhand -13.1508 -8.7167
lfingers 7.12502
lthumb 12.9478 20.8616
rfemur -22.3929 -6.27625 19.7423
rtibia 51.9306
rfoot -28.1045 7.38818
rtoes -8.93618
lfemur -25.6335 -3.8916 -12.2279
ltibia 58.5885
lfoot -30.2321 -4.26885
ltoes -9.05386
244
root 1.3945 16.5583 0.536607 174.149 -9.05198 -178.044
lowerback 42.2591 -2.83704 9.05777
upperback 8.66474 -2.98603 1.03321
thorax -10.3946 -2.91479 -1.97776
lowerneck 1.34164 -4.95177 -2.04977
upperneck 16.4189 -8.79602 5.11459
head 5.0304 -4.58547 1.52336
rclavicle 3.22031e-014 1.15295e-014
rhumerus -10.9741 1.12385 -80.9988
rradius 28.7407
rwrist 2.66493
rhand -17.7852 13.2268
rfingers 7.12502
rthumb 8.47767 -16.583
lclavicle 3.22031e-014 1.15295e-014
lhumerus -11.8055 9.46777 85.2559
lradius 38.213
lwrist -11.8844
lhand -13.328 -8.77962
lfingers 7.12502
lthumb 12.777 20.8094
rfemur -21.6405 -5.60161 19.9373
rtibia 50.7024
rfoot -28.0074 6.97597
rtoes -8.81143
lfemur -24.8633 -4.22205 -12.2133
ltibia 57.534
lfoot -30.1134 -3.59703
ltoes -9.54812
245
root 1.41019 16.6182 0.503469 174.181 -8.72372 -178.029
lowerback 41.7996 -2.84337 8.99624
upperback 8.60591 -3.0139 1.00108
thorax -10.3321 -2.9052 -1.99137
lowerneck 1.10613 -4.76968 -1.92455
upperneck 16.668 -8.54059 4.85512
head 5.12085 -4.46708 1.42316
rclavicle 9.34288e-015 1.35174e-014
rhumerus -11.4218 1.00206 -81.6142
rradius 28.4122
rwrist 2.88304
rhand -17.8335 13.3035
rfingers 7.12502
rthumb 8.43102 -16.5083
lclavicle 9.34288e-015 1.35174e-014
lhumerus -11.9879 9.29176 85.3243
lradius 38.5394
lwrist -11.6831
lhand -13.4544 -8.71841
lfingers 7.12502
lthumb 12.6551 20.8782
rfemur -20.8845 -4.94819 20.1537
rtibia 49.536
rfoot -27.9298 6.50922
rtoes -8.83397
lfemur -24.0691 -4.52478 -12.1777
ltibia 56.5161
lfoot -29.9986 -2.97743
ltoes -10.1034
246
root 1.42603 16.6758 0.467042 174.214 -8.37115 -178.011
lowerback 41.2562 -2.82238 8.96547
upperback 8.57593 -3.0071 0.949239
thorax -10.2068 -2.87808 -2.06272
lowerneck 0.876557 -4.61869 -1.69068
upperneck 16.8928 -8.32321 4.56941
head 5.20028 -4.36243 1.29637
rclavicle -3.57812e-015 -2.78299e-015
rhumerus -11.8742 0.897319 -82.221
rradius 28.0914
rwrist 2.9847
rhand -17.8872 13.3953
rfingers 7.12502
rthumb 8.37923 -16.4185
lclavicle -3.57812e-015 -2.78299e-015
lhumerus -12.0931 9.11821 85.4061
lradius 38.8531
lwrist -11.511
lhand -13.4996 -8.66307
lfingers 7.12502
lthumb 12.6115 20.9362
rfemur -20.1415 -4.25619 20.3713
rtibia 48.412
rfoot -27.8777 6.07018
rtoes -8.85637
lfemur -23.2767 -4.77549 -12.1366
ltibia 55.525
lfoot -29.8657 -2.38464
ltoes -10.6621
247
root 1.44107 16.7306 0.427212 174.211 -8.03323 -177.995
lowerback 40.6918 -2.79876 8.9079
upperback 8.55388 -3.01009 0.92654
thorax -10.0619 -2.85622 -2.08596
lowerneck 0.671585 -4.44338 -1.49632
upperneck 17.1545 -8.08191 4.28922
head 5.28915 -4.25098 1.17904
rclavicle 8.74653e-015 -1.39149e-014
rhumerus -12.3131 0.807288 -82.7796
rradius 27.7561
rwrist 3.17732
rhand -17.8633 13.3851
rfingers 7.12502
rthumb 8.40223 -16.4278
lclavicle 8.74653e-015 -1.39149e-014
lhumerus -12.2039 9.01952 85.5491
lradius 39.143
lwrist -11.2951
lhand -13.4659 -8.52636
lfingers 7.12502
lthumb 12.6441 21.0709
rfemur -19.3626 -3.62178 20.575
rtibia 47.3315
rfoot -27.8881 5.69315
rtoes -8.89133
lfemur -22.4569 -5.01725 -12.1062
ltibia 54.557
lfoot -29.6747 -1.82157
ltoes -10.9187
248
root 1.45578 16.7832 0.385049 174.211 -7.67454 -177.995
lowerback 40.1237 -2.7618 8.83948
upperback 8.5022 -2.98965 0.871533
thorax -9.94715 -2.8195 -2.14783
lowerneck 0.597831 -4.27652 -1.14423
upperneck 17.3407 -7.85086 3.97618
head 5.32733 -4.14189 1.03092
rclavicle -2.76311e-014 -3.81667e-014
rhumerus -12.8333 0.696085 -83.3681
rradius 27.4331
rwrist 3.3119
rhand -17.873 13.4047
rfingers 7.12502
rthumb 8.39295 -16.4086
lclavicle -2.76311e-014 -3.81667e-014
lhumerus -12.427 8.81503 85.6301
lradius 39.4683
lwrist -11.0054
lhand -13.4271 -8.36785
lfingers 7.12502
lthumb 12.6815 21.2271
rfemur -18.5957 -2.94333 20.7661
rtibia 46.2813
rfoot -27.921 5.27266
rtoes -9.04865
lfemur -21.6335 -5.23593 -12.0964
ltibia 53.6166
lfoot -29.4951 -1.21009
ltoes -11.1842
249
root 1.46997 16.8333 0.340386 174.18 -7.31671 -178.014
lowerback 39.5819 -2.72447 8.71018
upperback 8.42993 -2.98358 0.84676
thorax -9.86043 -2.78964 -2.13756
lowerneck 0.544226 -4.08324 -0.84597
upperneck 17.603 -7.59083 3.61744
head 5.38676 -4.02802 0.87775
rclavicle -6.55989e-015 1.39149e-014
rhumerus -13.3681 0.651902 -83.9089
rradius 27.0944
rwrist 3.50277
rhand -17.8131 13.3553
rfingers 7.12502
rthumb 8.45071 -16.4556
lclavicle -6.55989e-015 1.39149e-014
lhumerus -12.6922 8.87051 85.7545
lradius 39.7455
lwrist -10.8502
lhand -13.3349 -8.25965
lfingers 7.12502
lthumb 12.7704 21.3298
rfemur -17.8093 -2.30213 20.9294
rtibia 45.274
rfoot -27.9572 4.88735
rtoes -9.08482
lfemur -20.7847 -5.45297 -12.1167
ltibia 52.7108
lfoot -29.3193 -0.591285
ltoes -11.3222
250
root 1.48403 16.8786 0.293731 174.142 -6.9695 -177.996
lowerback 39.0174 -2.69817 8.64975
upperback 8.35593 -2.96282 0.819631
thorax -9.7636 -2.75291 -2.17205
lowerneck 0.566846 -3.8988 -0.552206
upperneck 17.7964 -7.34572 3.32235
head 5.41647 -3.91961 0.747394
rclavicle 1.37161e-014 2.26615e-014
rhumerus -13.9106 0.524081 -84.418
rradius 26.7416
rwrist 3.70291
rhand -17.7246 13.3488
rfingers 7.12502
rthumb 8.53615 -16.4587
lclavicle 1.37161e-014 2.26615e-014
lhumerus -12.9652 8.99732 85.9212
lradius 40.0429
lwrist -10.6879
lhand -13.2122 -8.0474
lfingers 7.12502
lthumb 12.8887 21.5346
rfemur -17.0256 -1.66449 21.128
rtibia 44.3094
rfoot -27.9979 4.55636
rtoes -9.02527
lfemur -19.9633 -5.65379 -12.1039
ltibia 51.8545
lfoot -29.1275 0.0259386
ltoes -11.6213
251
root 1.49881 16.9216 0.244343 174.081 -6.649 -177.991
lowerback 38.4707 -2.68656 8.57969
upperback 8.26591 -2.95809 0.785204
thorax -9.68951 -2.72271 -2.2011
lowerneck 0.583972 -3.70689 -0.265156
upperneck 18.0588 -7.10633 3.03858
head 5.47097 -3.81609 0.619433
rclavicle -1.59028e-015 -3.97569e-015
rhumerus -14.5356 0.372198 -84.9308
rradius 26.4552
rwrist 3.91843
rhand -17.5881 13.2744
rfingers 7.12502
rthumb 8.66786 -16.5277
lclavicle -1.59028e-015 -3.97569e-015
lhumerus -13.2766 9.13094 86.0659
lradius 40.3058
lwrist -10.4833
lhand -13.0642 -7.84433
lfingers 7.12502
lthumb 13.0313 21.7286
rfemur -16.236 -1.05284 21.3211
rtibia 43.3968
rfoot -28.0644 4.16375
rtoes -9.13078
lfemur -19.1457 -5.85168 -12.1
ltibia 51.0489
lfoot -28.9407 0.600939
ltoes -12.1141
252
root 1.51374 16.9592 0.192994 174.014 -6.3325 -178.026
lowerback 37.9502 -2.67262 8.46026
upperback 8.14757 -2.95756 0.76412
thorax -9.65285 -2.69325 -2.18644
lowerneck 0.722489 -3.48738 -0.0337077
upperneck 18.2736 -6.82585 2.75788
head 5.49263 -3.69997 0.507243
rclavicle 3.77691e-015 -3.45885e-014
rhumerus -15.2109 0.370144 -85.3918
rradius 26.1977
rwrist 3.97418
rhand -17.4321 13.1898
rfingers 7.12502
rthumb 8.8184 -16.606
lclavicle 3.77691e-015 -3.45885e-014
lhumerus -13.647 9.27802 86.2395
lradius 40.5711
lwrist -10.2027
lhand -12.9513 -7.6809
lfingers 7.12502
lthumb 13.1401 21.8851
rfemur -15.4606 -0.46936 21.4614
rtibia 42.5346
rfoot -28.1337 3.86944
rtoes -9.07247
lfemur -18.3446 -6.06514 -12.1497
ltibia 50.3078
lfoot -28.7383 1.18092
ltoes -12.3093
253
root 1.52908 16.9927 0.139026 173.918 -6.02347 -178.023
lowerback 37.4552 -2.6718 8.38171
upperback 8.01967 -2.9543 0.743051
thorax -9.63227 -2.6638 -2.19204
lowerneck 0.855458 -3.27863 0.192323
upperneck 18.524 -6.57333 2.51076
head 5.52965 -3.59714 0.403561
rclavicle -1.37161e-014 1.66979e-014
rhumerus -15.922 0.19901 -85.8422
rradius 25.9308
rwrist 4.18671
rhand -17.2608 13.1406
rfingers 7.12502
rthumb 8.98364 -16.6481
lclavicle -1.37161e-014 1.66979e-014
lhumerus -14.0936 9.44604 86.4064
lradius 40.8853
lwrist -9.91054
lhand -12.804 -7.50156
lfingers 7.12502
lthumb 13.2821 22.0552
rfemur -14.6687 0.104673 21.6471
rtibia 41.713
rfoot -28.2044 3.54262
rtoes -9.04052
lfemur -17.5598 -6.25243 -12.1635
ltibia 49.6396
lfoot -28.547 1.77676
ltoes -12.6565
254
root 1.54558 17.0226 0.0836203 173.819 -5.75102 -178.016
lowerback 36.9887 -2.68883 8.31027
upperback 7.8459 -2.95282 0.730083
thorax -9.67051 -2.63316 -2.18901
lowerneck 1.08997 -3.05923 0.409083
upperneck 18.7767 -6.31449 2.26378
head 5.55188 -3.49688 0.303628
rclavicle 2.66371e-014 -2.26615e-014
rhumerus -16.7462 0.0640589 -86.2629
rradius 25.7099
rwrist 4.37335
rhand -17.1382 13.1028
rfingers 7.12502
rthumb 9.102 -16.6808
lclavicle 2.66371e-014 -2.26615e-014
lhumerus -14.6379 9.66942 86.6037
lradius 41.1915
lwrist -9.55701
lhand -12.6845 -7.35644
lfingers 7.12502
lthumb 13.3973 22.1928
rfemur -13.8817 0.636188 21.8405
rtibia 40.9247
rfoot -28.2955 3.23035
rtoes -9.082
lfemur -16.8415 -6.44217 -12.1688
ltibia 49.0595
lfoot -28.3248 2.3242
ltoes -12.9105
255
root 1.56253 17.0519 0.0263098 173.712 -5.49967 -178.031
lowerback 36.5142 -2.70309 8.2261
upperback 7.68058 -2.956 0.714719
thorax -9.69432 -2.6047 -2.18082
lowerneck 1.35546 -2.8436 0.599845
upperneck 19.0117 -6.06241 2.04176
head 5.56623 -3.40091 0.21581
rclavicle 6.55989e-015 -1.55052e-014
rhumerus -17.5393 -0.146542 -86.6533
rradius 25.4534
rwrist 4.63434
rhand -16.9979 13.1198
rfingers 7.12502
rthumb 9.23736 -16.6578
lclavicle 6.55989e-015 -1.55052e-014
lhumerus -15.2027 9.95667 86.811
lradius 41.4915
lwrist -9.25767
lhand -12.6213 -7.31329
lfingers 7.12502
lthumb 13.4582 22.2319
rfemur -13.0885 1.17952 22.0162
rtibia 40.1634
rfoot -28.3903 2.9099
rtoes -9.14269
lfemur -16.1661 -6.63126 -12.2021
ltibia 48.5555
lfoot -28.0876 2.86291
ltoes -13.2474
